<?xml version="1.0" encoding="UTF-8" standalone="no"?>
<!-- Created with Inkscape (http://www.inkscape.org/) -->

<svg
   width="12.014293cm"
   height="1.0840211cm"
   viewBox="0 0 12.014292 1.084021"
   version="1.1"
   id="svg1"
   xml:space="preserve"
   xmlns="http://www.w3.org/2000/svg"
   xmlns:svg="http://www.w3.org/2000/svg"><defs
     id="defs1" /><g
     id="layer1"
     transform="matrix(0.06508329,0,0,0.06508329,-2.0124271,-8.0706186)"><path
       id="path1"
       style="fill:#ffffff;fill-opacity:1;stroke:none;stroke-width:0.119808"
       d="m 167.53952,124.00454 c -0.49991,0.003 -1.18009,0.13259 -1.25215,0.80274 0,0 -0.78381,0.56516 -0.69158,0.96869 l 0.81862,-0.36922 c 0,0 0.77181,-0.0346 0.74875,0.28823 -0.023,0.32282 -0.69158,2.3177 -0.69158,2.3177 0,0 -0.89916,0.50762 -0.93375,1.1648 -0.0346,0.65718 -0.41509,2.20211 0.57645,4.20822 0.0472,0.0955 0.0831,0.17448 0.12624,0.26441 h 5.00859 c 0.2597,-0.72788 0.49327,-1.44227 0.56056,-1.83256 0.17934,-1.04014 0.496,-2.95392 -0.72651,-3.93191 -1.08878,-0.87101 -1.06214,-1.01156 -1.78651,-1.60231 -0.57295,-0.46725 0.253,-1.41811 -1.22277,-2.23671 0,0 -0.23442,-0.0439 -0.53436,-0.0421 z m -1.05127,10.17517 c 0.63439,1.41336 0.69793,1.98422 0.69793,1.98422 l -0.23026,3.79296 c 0,0 0.0462,0.70348 0.48435,0.70348 l 2.70914,-0.0111 c 0,0 0.34613,-0.0232 0.39224,-0.41527 0.0366,-0.31106 -0.1731,-4.26618 -0.1731,-4.26618 0,0 0.33781,-0.83915 0.68841,-1.7881 z" /><path
       style="display:inline;fill:none;fill-opacity:1;stroke:#ffffff;stroke-width:0.71247;stroke-dasharray:none;stroke-opacity:1"
       d="M 30.920796,133.38543 H 215.51953"
       id="path5-7" /></g></svg>
